<mxfile host="Electron" agent="Mozilla/5.0 (Windows NT 10.0; Win64; x64) AppleWebKit/537.36 (KHTML, like Gecko) draw.io/23.1.5 Chrome/120.0.6099.109 Electron/28.1.0 Safari/537.36" modified="2025-03-31T10:19:46.175Z" etag="XXrXCs7fpW3SJZn4SlTj" version="23.1.5" type="device" pages="2">
  <diagram name="Modelo de Dominio" id="ido31kd_muDrxZjAAVka">
    <mxGraphModel dx="735" dy="433" grid="1" gridSize="10" guides="1" tooltips="1" connect="1" arrows="1" fold="1" page="1" pageScale="1" pageWidth="2339" pageHeight="3300" math="0" shadow="0">
      <root>
        <mxCell id="0" />
        <mxCell id="1" parent="0" />
        <mxCell id="vOnir1Rbc5f-jPg_oJ7X-12" style="edgeStyle=orthogonalEdgeStyle;rounded=0;orthogonalLoop=1;jettySize=auto;html=1;startArrow=block;startFill=0;endArrow=block;endFill=0;" parent="1" source="vOnir1Rbc5f-jPg_oJ7X-3" target="vOnir1Rbc5f-jPg_oJ7X-6" edge="1">
          <mxGeometry relative="1" as="geometry" />
        </mxCell>
        <mxCell id="vOnir1Rbc5f-jPg_oJ7X-3" value="&lt;font style=&quot;font-size: 32px;&quot;&gt;User&lt;/font&gt;" style="rounded=0;whiteSpace=wrap;html=1;" parent="1" vertex="1">
          <mxGeometry x="250" y="180" width="210" height="100" as="geometry" />
        </mxCell>
        <mxCell id="vOnir1Rbc5f-jPg_oJ7X-18" style="edgeStyle=orthogonalEdgeStyle;rounded=0;orthogonalLoop=1;jettySize=auto;html=1;endArrow=block;endFill=0;" parent="1" source="vOnir1Rbc5f-jPg_oJ7X-6" target="vOnir1Rbc5f-jPg_oJ7X-9" edge="1">
          <mxGeometry relative="1" as="geometry" />
        </mxCell>
        <mxCell id="vOnir1Rbc5f-jPg_oJ7X-6" value="&lt;font style=&quot;font-size: 32px;&quot;&gt;Conta&lt;/font&gt;" style="rounded=0;whiteSpace=wrap;html=1;" parent="1" vertex="1">
          <mxGeometry x="680" y="180" width="210" height="100" as="geometry" />
        </mxCell>
        <mxCell id="vOnir1Rbc5f-jPg_oJ7X-9" value="&lt;font style=&quot;font-size: 32px;&quot;&gt;Registos&lt;/font&gt;" style="rounded=0;whiteSpace=wrap;html=1;" parent="1" vertex="1">
          <mxGeometry x="680" y="400" width="210" height="100" as="geometry" />
        </mxCell>
      </root>
    </mxGraphModel>
  </diagram>
  <diagram id="EaZroxDyzV0M2bf3jpjG" name="Diagrama de Casos de Uso">
    <mxGraphModel dx="1434" dy="844" grid="1" gridSize="10" guides="1" tooltips="1" connect="1" arrows="1" fold="1" page="1" pageScale="1" pageWidth="2339" pageHeight="3300" math="0" shadow="0">
      <root>
        <mxCell id="0" />
        <mxCell id="1" parent="0" />
        <mxCell id="ylRCtxlwK-a8e4duEky0-8" value="Criar Conta" style="ellipse;whiteSpace=wrap;html=1;" parent="1" vertex="1">
          <mxGeometry x="270" y="100" width="120" height="80" as="geometry" />
        </mxCell>
        <mxCell id="ylRCtxlwK-a8e4duEky0-19" value="Add Registo" style="ellipse;whiteSpace=wrap;html=1;" parent="1" vertex="1">
          <mxGeometry x="300" y="400" width="120" height="80" as="geometry" />
        </mxCell>
        <mxCell id="dLBIaFKeag9jurpO8ZqQ-1" value="Criar User" style="ellipse;whiteSpace=wrap;html=1;" parent="1" vertex="1">
          <mxGeometry x="640" y="110" width="120" height="80" as="geometry" />
        </mxCell>
        <mxCell id="dLBIaFKeag9jurpO8ZqQ-14" value="Simulação de IRS" style="ellipse;whiteSpace=wrap;html=1;" parent="1" vertex="1">
          <mxGeometry x="610" y="350" width="120" height="80" as="geometry" />
        </mxCell>
        <mxCell id="X_AHCSF-c1cm0T_BQ6sr-5" style="edgeStyle=orthogonalEdgeStyle;rounded=0;orthogonalLoop=1;jettySize=auto;html=1;exitX=0.5;exitY=0.5;exitDx=0;exitDy=0;exitPerimeter=0;" edge="1" parent="1" source="X_AHCSF-c1cm0T_BQ6sr-4" target="ylRCtxlwK-a8e4duEky0-19">
          <mxGeometry relative="1" as="geometry" />
        </mxCell>
        <mxCell id="X_AHCSF-c1cm0T_BQ6sr-6" style="edgeStyle=orthogonalEdgeStyle;rounded=0;orthogonalLoop=1;jettySize=auto;html=1;exitX=0;exitY=0.3333333333333333;exitDx=0;exitDy=0;exitPerimeter=0;" edge="1" parent="1" source="X_AHCSF-c1cm0T_BQ6sr-4" target="ylRCtxlwK-a8e4duEky0-8">
          <mxGeometry relative="1" as="geometry" />
        </mxCell>
        <mxCell id="X_AHCSF-c1cm0T_BQ6sr-7" style="edgeStyle=orthogonalEdgeStyle;rounded=0;orthogonalLoop=1;jettySize=auto;html=1;exitX=1;exitY=0.3333333333333333;exitDx=0;exitDy=0;exitPerimeter=0;" edge="1" parent="1" source="X_AHCSF-c1cm0T_BQ6sr-4" target="dLBIaFKeag9jurpO8ZqQ-1">
          <mxGeometry relative="1" as="geometry" />
        </mxCell>
        <mxCell id="X_AHCSF-c1cm0T_BQ6sr-8" style="edgeStyle=orthogonalEdgeStyle;rounded=0;orthogonalLoop=1;jettySize=auto;html=1;" edge="1" parent="1" source="X_AHCSF-c1cm0T_BQ6sr-4" target="dLBIaFKeag9jurpO8ZqQ-14">
          <mxGeometry relative="1" as="geometry" />
        </mxCell>
        <mxCell id="X_AHCSF-c1cm0T_BQ6sr-4" value="User" style="shape=umlActor;verticalLabelPosition=bottom;verticalAlign=top;html=1;outlineConnect=0;" vertex="1" parent="1">
          <mxGeometry x="510" y="260" width="30" height="60" as="geometry" />
        </mxCell>
      </root>
    </mxGraphModel>
  </diagram>
</mxfile>
